<?xml version="1.0" encoding="utf-8"?>
<!-- Generator: Adobe Illustrator 17.1.0, SVG Export Plug-In . SVG Version: 6.00 Build 0)  -->
<!DOCTYPE svg PUBLIC "-//W3C//DTD SVG 1.1//EN" "http://www.w3.org/Graphics/SVG/1.1/DTD/svg11.dtd">
<svg version="1.1" id="Layer_1" xmlns="http://www.w3.org/2000/svg" xmlns:xlink="http://www.w3.org/1999/xlink" x="0px" y="0px"
	 viewBox="0 0 108 72" enable-background="new 0 0 108 72" xml:space="preserve">
<g>
	<path fill-rule="evenodd" clip-rule="evenodd" fill="#FFFFFF" d="M3.3,19.2c2.5,0.7,3.1-1.2,4-2.9c1-1.9,2-3,2.1-5.1
		c-1.5-0.8-3.8-0.8-5.2-1.7c0.6-2.6,3-4.4,2.5-7.7C6.3,1.9,6.3,1.6,5.9,1.7C4.8,5,2.3,6.9,1.4,10.5c0.8,1.3,2.8,1.3,4,2.1
		C4.6,14.6,2.7,16.3,3.3,19.2z"/>
	<path fill-rule="evenodd" clip-rule="evenodd" fill="#FFFFFF" d="M11.1,36.8c-1.7-1.3-3.9-0.6-4.8,0.5c0-9.4,0-7.2,0-16.7
		c-0.6-0.1-2.4-0.4-3.1,0c0,0-0.1,0-0.1,0c0,0,0,0.1,0,0.1C3.1,20.7,3,20.8,3,20.9c0,14.3,0,17,0,31.2c0.7,0,2.5,0.5,3.2,0
		c0,0,0,0,0.1,0c0,0,0,0,0-0.1c0.2-0.2,0.3-0.4,0.2-0.9c1.9,1.9,3.4,1.9,4.5,0.7c0,0,0,0,0,0c0,0,0,0,0,0l0,0c0,0,0,0,0.1,0
		c0.1-0.1,0.3-0.3,0.4-0.4c0,0,0.1-0.1,0.1-0.1c0.1-0.2,0.2-0.3,0.3-0.5c0-0.1,0.1-0.1,0.1-0.2c0.1-0.2,0.1-0.3,0.2-0.5
		c0.1-0.1,0.1-0.3,0.2-0.5c0-0.1,0.1-0.3,0.1-0.4c0.1-0.3,0.2-0.7,0.2-1.1c0,0,0,0,0,0c0,0,0,0,0,0c0,0,0,0,0,0c0,0,0,0,0,0
		c0,0,0,0,0,0c0-0.1,0-0.1,0-0.2C13.5,43.7,13,38.3,11.1,36.8z M6,44.6c0,0.1,0,0.2,0,0.4C6,44.8,6,44.7,6,44.6z M9.8,44
		c0-0.1,0-0.1,0-0.2C9.7,43.9,9.8,44,9.8,44z M7.9,49.5c-2.3,0.1-2.3-10.3-0.2-10.4C10.2,38.9,10,49.5,7.9,49.5z M9.3,40.7
		C9.3,40.7,9.3,40.7,9.3,40.7C9.3,40.7,9.3,40.7,9.3,40.7z M9.4,41C9.4,41.1,9.4,41.1,9.4,41C9.4,41.1,9.4,41.1,9.4,41z M9.5,41.5
		C9.5,41.5,9.5,41.5,9.5,41.5C9.5,41.5,9.5,41.5,9.5,41.5z M6.7,39.8C6.7,39.8,6.7,39.8,6.7,39.8L6.7,39.8
		C6.7,39.8,6.7,39.8,6.7,39.8z M6.2,47.4c0-0.1-0.1-0.3-0.1-0.5C6.2,47.1,6.2,47.3,6.2,47.4z M6.1,46.7c0-0.2,0-0.3,0-0.5
		C6.1,46.4,6.1,46.5,6.1,46.7z M6,45.8c0-0.1,0-0.3,0-0.5C6,45.5,6,45.7,6,45.8z M6,44c0,0,0-0.1,0-0.1C6,43.9,6,44,6,44z M7.3,49.5
		c-0.1-0.1-0.2-0.1-0.3-0.2C7.1,49.4,7.2,49.5,7.3,49.5z M6.9,49.2c-0.1-0.1-0.1-0.2-0.2-0.3C6.8,49,6.9,49.1,6.9,49.2z M6.6,48.7
		c-0.1-0.1-0.1-0.2-0.2-0.3C6.5,48.5,6.6,48.6,6.6,48.7z M6.4,48.1c0-0.1-0.1-0.3-0.1-0.4C6.3,47.9,6.3,48,6.4,48.1z M7.9,49.7
		c0.1,0,0.2,0,0.2,0C8,49.7,8,49.7,7.9,49.7c-0.2,0-0.3,0-0.5-0.1C7.6,49.7,7.7,49.7,7.9,49.7z M8.5,49.4c0,0-0.1,0.1-0.1,0.1
		C8.4,49.4,8.5,49.4,8.5,49.4z M8.3,49.5c0,0-0.1,0.1-0.1,0.1C8.2,49.6,8.3,49.6,8.3,49.5z M9.5,46.9c0,0.1,0,0.2,0,0.2
		C9.5,47,9.5,47,9.5,46.9z M9.4,47.3c0,0.1,0,0.2-0.1,0.2C9.4,47.5,9.4,47.4,9.4,47.3z M9.3,47.8c0,0.1,0,0.1-0.1,0.2
		C9.3,47.9,9.3,47.9,9.3,47.8z M9.2,48.2c0,0.1-0.1,0.1-0.1,0.2C9.1,48.3,9.2,48.2,9.2,48.2z M9,48.5C9,48.6,9,48.7,9,48.7
		C9,48.7,9,48.6,9,48.5z M8.9,48.9c0,0.1-0.1,0.1-0.1,0.2C8.8,49,8.9,48.9,8.9,48.9z M8.7,49.1c0,0-0.1,0.1-0.1,0.1
		C8.6,49.2,8.7,49.2,8.7,49.1z M9.7,44.4c0,0.1,0,0.1,0,0.2C9.7,44.5,9.7,44.4,9.7,44.4z M9.7,44.9c0,0.1,0,0.1,0,0.2
		C9.7,45,9.7,45,9.7,44.9z M9.7,45.4c0,0.1,0,0.2,0,0.2C9.7,45.6,9.7,45.5,9.7,45.4z M9.7,45.9c0,0.1,0,0.2,0,0.2
		C9.6,46.1,9.6,46,9.7,45.9z M9.6,46.4c0,0.1,0,0.2,0,0.2C9.6,46.6,9.6,46.5,9.6,46.4z M9.6,41.9C9.6,41.9,9.6,42,9.6,41.9
		C9.6,42,9.6,41.9,9.6,41.9z M9.6,42.4c0,0,0,0.1,0,0.1C9.7,42.4,9.7,42.4,9.6,42.4z M9.7,42.8c0,0,0,0.1,0,0.1
		C9.7,42.9,9.7,42.9,9.7,42.8z M9.7,43.3c0,0.1,0,0.1,0,0.2C9.7,43.5,9.7,43.4,9.7,43.3z M7.7,38.9c-0.1,0-0.3,0.1-0.4,0.1
		c0,0,0,0,0,0C7.5,39,7.6,39,7.7,38.9z M5.9,42.4c0-0.2,0.1-0.5,0.1-0.7C6,41.9,6,42.2,5.9,42.4z M6.1,41.7c0-0.2,0.1-0.4,0.2-0.7
		C6.2,41.2,6.1,41.5,6.1,41.7z M6.2,40.9c0.1-0.2,0.1-0.4,0.2-0.6C6.4,40.5,6.3,40.7,6.2,40.9z M6.5,40.3c0.1-0.2,0.2-0.4,0.2-0.5
		C6.6,39.9,6.5,40.1,6.5,40.3z M5.8,44.2c0,0.2,0,0.5,0,0.7C5.8,44.7,5.8,44.4,5.8,44.2z M6,46.6c0-0.2-0.1-0.5-0.1-0.7
		C5.9,46.1,5.9,46.4,6,46.6z M5.9,45.8c0-0.2,0-0.5,0-0.7C5.8,45.3,5.9,45.5,5.9,45.8z M5.8,44.1c0-0.3,0-0.5,0-0.8
		C5.8,43.6,5.8,43.9,5.8,44.1z M5.9,43.2c0-0.2,0-0.5,0.1-0.7C5.9,42.7,5.9,43,5.9,43.2z M7.1,49.5c-0.1-0.1-0.2-0.2-0.3-0.3
		C6.9,49.3,7,49.4,7.1,49.5z M6.8,49.1c-0.1-0.1-0.2-0.3-0.2-0.4C6.6,48.9,6.7,49,6.8,49.1z M6.5,48.6c-0.1-0.2-0.1-0.3-0.2-0.5
		C6.4,48.3,6.5,48.5,6.5,48.6z M6.3,48c-0.1-0.2-0.1-0.4-0.2-0.6C6.2,47.6,6.2,47.8,6.3,48z M6.1,47.3c0-0.2-0.1-0.4-0.1-0.6
		C6,46.9,6.1,47.1,6.1,47.3z M7.9,49.8c-0.1,0-0.2,0-0.4-0.1C7.6,49.8,7.8,49.8,7.9,49.8z M7.5,49.8c-0.1,0-0.2-0.1-0.3-0.2
		C7.3,49.6,7.4,49.7,7.5,49.8z M12.9,44.1c0-0.1,0-0.3,0-0.4C12.9,43.8,12.9,43.9,12.9,44.1z M12.9,44.7c0,0.1,0,0.2,0,0.3
		C12.9,44.9,12.9,44.8,12.9,44.7z M12.8,42.2c0,0.2,0,0.4,0,0.5C12.8,42.6,12.8,42.4,12.8,42.2z M11.5,37.4
		c-0.1-0.2-0.2-0.3-0.4-0.4C11.2,37.1,11.4,37.2,11.5,37.4z M12.8,41.8c0-0.2,0-0.4-0.1-0.6C12.7,41.3,12.7,41.5,12.8,41.8z
		 M12.6,40.8c0-0.3-0.1-0.6-0.2-0.9C12.5,40.2,12.6,40.5,12.6,40.8z M12.4,39.7c-0.1-0.2-0.1-0.4-0.2-0.6
		C12.3,39.2,12.4,39.4,12.4,39.7z M12.2,38.8c-0.1-0.3-0.2-0.5-0.3-0.7C12,38.3,12.1,38.6,12.2,38.8z M11.8,38
		c-0.1-0.2-0.2-0.3-0.3-0.5C11.7,37.7,11.8,37.8,11.8,38z M6.2,50.8c0.1,0.2,0.2,0.4,0.4,0.6C6.4,51.1,6.3,51,6.2,50.8z M7,51.8
		c-0.1-0.1-0.2-0.2-0.3-0.2C6.9,51.6,6.9,51.7,7,51.8z M7.5,52c0.1,0,0.1,0.1,0.2,0.1C7.6,52.1,7.5,52.1,7.5,52z M8.2,52.4
		C8.2,52.4,8.2,52.4,8.2,52.4C8.2,52.4,8.2,52.4,8.2,52.4z M12.7,47.2c0,0.1,0,0.2,0,0.2C12.7,47.3,12.7,47.3,12.7,47.2z"/>
	<path fill-rule="evenodd" clip-rule="evenodd" fill="#FFFFFF" d="M23.3,38.7c-0.1-0.2-0.2-0.3-0.3-0.5c0,0,0,0,0,0.1
		c0,0-0.1-0.1-0.1-0.1c-0.1-0.1-0.1-0.2-0.2-0.4c-0.1-0.2-0.3-0.4-0.5-0.6c-0.1-0.1-0.1-0.1-0.2-0.1c-1.4-1.3-3.3-1.7-5.3-0.3
		c-3,2.1-3.4,12-0.5,14.7c3.1,2.9,8.7,0,7.8-4.8c-0.7-0.3-2-0.1-2.9-0.2c-0.2,1.6-0.5,3.2-1.8,3.1c-0.1,0-0.2,0-0.3-0.1
		c-0.2-0.1-0.4-0.2-0.5-0.4c-0.7-0.9-0.6-2.7-0.8-4.1c2.2-0.1,4.7,0.2,6.6-0.2c0.4-2.3,0-4.7-1.1-6.4C23.3,38.6,23.3,38.7,23.3,38.7
		z M20.8,49.3c-0.1,0.1-0.1,0.2-0.2,0.3C20.6,49.4,20.7,49.4,20.8,49.3z M20.6,49.3C20.6,49.3,20.7,49.3,20.6,49.3
		C20.7,49.3,20.6,49.3,20.6,49.3z M20.9,48.9c0,0,0-0.1,0.1-0.1C20.9,48.9,20.9,48.9,20.9,48.9z M21.1,48.5c0-0.1,0-0.1,0.1-0.2
		C21.1,48.4,21.1,48.5,21.1,48.5z M21.2,48c0-0.1,0-0.2,0-0.3C21.2,47.8,21.2,47.9,21.2,48z M21.3,47.8c0,0.2-0.1,0.4-0.1,0.6
		C21.2,48.2,21.3,48,21.3,47.8z M21.2,48.3c0,0.2-0.1,0.3-0.2,0.4C21.1,48.7,21.1,48.5,21.2,48.3z M21,48.9
		c-0.1,0.1-0.1,0.3-0.2,0.4C20.9,49.1,20.9,49,21,48.9z M21.3,47.6c0-0.2,0.1-0.4,0.1-0.7C21.4,47.2,21.4,47.4,21.3,47.6z
		 M17.4,45.9c0,0.2,0,0.3,0,0.5C17.3,46.2,17.3,46,17.4,45.9z M21.3,42c0-0.1,0-0.1,0-0.2C21.3,41.8,21.3,41.9,21.3,42z M19.9,39.1
		c0.1,0,0.2,0.1,0.2,0.1c0.6,0.8,0.7,2.2,0.9,3.4c-1,0-2,0-3.1,0c-0.1-1.4,0.3-2.4,0.6-3.4C19.1,39.1,19.3,38.9,19.9,39.1z
		 M20.2,39.3L20.2,39.3C20.2,39.3,20.2,39.3,20.2,39.3C20.2,39.3,20.2,39.3,20.2,39.3z M20.4,39.6c0,0,0,0.1,0.1,0.1
		C20.5,39.6,20.5,39.6,20.4,39.6z M20.6,39.9c0,0,0,0.1,0.1,0.1C20.6,40,20.6,39.9,20.6,39.9z M20.8,40.3c0,0,0,0.1,0,0.1
		C20.8,40.4,20.8,40.3,20.8,40.3z M20.9,40.8C20.9,40.8,20.9,40.8,20.9,40.8C20.9,40.8,20.9,40.8,20.9,40.8z M21,41.3
		c0,0,0,0.1,0,0.1C21,41.4,21,41.3,21,41.3z M21,41.7c0,0.1,0,0.1,0,0.2C21,41.8,21,41.8,21,41.7z M21.1,42.2c0,0,0,0.1,0,0.1
		C21.1,42.3,21.1,42.3,21.1,42.2z M20.2,39.3c0.2,0.2,0.4,0.4,0.6,0.8C20.7,39.7,20.5,39.5,20.2,39.3z M20.9,40.2
		c0,0.1,0.1,0.2,0.1,0.3C21,40.4,21,40.3,20.9,40.2z M18.4,39.3C18.4,39.3,18.4,39.3,18.4,39.3C18.4,39.3,18.4,39.3,18.4,39.3
		C18.4,39.3,18.4,39.3,18.4,39.3z M18.1,40.1C18.1,40.1,18.1,40,18.1,40.1C18.1,40,18.1,40.1,18.1,40.1z M17.7,42.8c0-0.4,0-0.7,0-1
		C17.7,42.1,17.7,42.4,17.7,42.8z M17.8,41.1c0-0.1,0-0.2,0-0.3C17.8,40.9,17.8,41,17.8,41.1z M21.2,41c0,0.1,0,0.1,0,0.2
		C21.2,41.1,21.2,41.1,21.2,41z M18.4,39.3c-0.2,0.1-0.3,0.3-0.4,0.5C18.1,39.6,18.2,39.4,18.4,39.3z M17.6,40.6
		c0-0.1,0.1-0.2,0.1-0.2C17.7,40.4,17.7,40.5,17.6,40.6z M17.8,40.1c0-0.1,0.1-0.2,0.1-0.3C17.9,39.9,17.9,40,17.8,40.1z M17.5,41.8
		c0,0.1,0,0.1,0,0.2C17.5,41.9,17.5,41.9,17.5,41.8z M17.5,41.3c0-0.1,0-0.1,0-0.2C17.5,41.1,17.5,41.2,17.5,41.3z M17.6,44.8
		c-0.1,0.2-0.1,0.3-0.1,0.5C17.5,45.1,17.5,44.9,17.6,44.8z M18.6,36.3c0,0,0.1,0,0.1,0C18.7,36.3,18.6,36.3,18.6,36.3z M16.8,37.1
		c0.3-0.2,0.5-0.3,0.8-0.5C17.3,36.8,17.1,36.9,16.8,37.1z M17.4,45.4c0,0.2-0.1,0.3-0.1,0.5C17.4,45.7,17.4,45.5,17.4,45.4z
		 M17.9,48.3c0.1,0.1,0.1,0.2,0.2,0.4c0,0,0,0,0,0C18.1,48.6,18,48.5,17.9,48.3z M17.4,46.4c0,0.2,0,0.3,0.1,0.5
		C17.4,46.8,17.4,46.6,17.4,46.4z M17.4,46.9c0,0.2,0.1,0.3,0.1,0.4C17.5,47.2,17.4,47.1,17.4,46.9z M17.5,47.5
		c0.1,0.3,0.2,0.6,0.3,0.8C17.7,48,17.6,47.7,17.5,47.5z M17.6,44.9c0,0.3,0.1,0.6,0.1,0.9C17.6,45.5,17.6,45.2,17.6,44.9z
		 M17.9,47.8C17.9,47.8,17.9,47.8,17.9,47.8C17.9,47.8,17.9,47.8,17.9,47.8z M23.9,40.7c-0.1-0.7-0.3-1.4-0.5-2
		C23.6,39.3,23.8,40,23.9,40.7C23.9,40.8,23.9,40.7,23.9,40.7z M21.5,36.7C21.5,36.7,21.6,36.7,21.5,36.7
		C21.6,36.7,21.5,36.7,21.5,36.7z M20,36.3c0.1,0,0.3,0,0.4,0.1C20.2,36.3,20.1,36.3,20,36.3z M20.7,36.4c0.1,0,0.1,0,0.2,0.1
		C20.9,36.5,20.8,36.4,20.7,36.4z M17.5,36.6c-0.2,0.1-0.5,0.2-0.7,0.4C17,36.8,17.2,36.7,17.5,36.6z M18.3,36.3
		c-0.3,0.1-0.5,0.1-0.7,0.2C17.8,36.5,18,36.4,18.3,36.3z M21.3,47.4c0-0.2,0-0.4,0-0.7C21.3,47,21.3,47.2,21.3,47.4z M19.7,49.8
		L19.7,49.8c0.1,0,0.2,0,0.3,0C19.9,49.8,19.8,49.8,19.7,49.8L19.7,49.8L19.7,49.8L19.7,49.8z M20.4,49.5
		C20.4,49.5,20.4,49.6,20.4,49.5C20.4,49.6,20.4,49.5,20.4,49.5z M20,49.7C20,49.7,20,49.7,20,49.7C20,49.7,20,49.7,20,49.7z
		 M20.5,49.6c-0.1,0.1-0.2,0.1-0.3,0.2C20.4,49.7,20.4,49.6,20.5,49.6z M20.3,49.7c-0.1,0-0.2,0.1-0.3,0.1
		C20.1,49.8,20.2,49.8,20.3,49.7z M24.1,43.9C24.1,43.9,24.1,43.9,24.1,43.9c0,0.3,0,0.6,0,1C24.2,44.6,24.1,44.3,24.1,43.9z"/>
	<path fill-rule="evenodd" clip-rule="evenodd" fill="#FFFFFF" d="M32.6,36.3c-0.4,0.2,0.1,1.1-0.3,1.2c-0.4-0.9-0.8-1-1.4-1.2
		c-0.5-0.2-0.9-0.2-1.3-0.2c-0.6,0-1.2,0.2-1.7,0.6c0,0,0,0,0,0l0,0c0,0,0,0,0,0l0,0c0,0,0,0,0,0c-0.1,0.1-0.1,0.1-0.2,0.2
		c-2.4,2.3-2.8,8.9-1.2,12.8c0.1,0.2,0.2,0.5,0.3,0.7c0,0,0,0.1,0.1,0.1c0.1,0.2,0.2,0.3,0.2,0.5c0,0.1,0.1,0.1,0.1,0.2
		c0.1,0.1,0.2,0.2,0.2,0.3c0,0,0.1,0.1,0.1,0.1c0.1,0.1,0.2,0.2,0.4,0.3c0.2,0.1,0.4,0.2,0.6,0.3c0.5,0.3,1.2,0.4,1.9,0.3
		c1-0.2,1.3-0.8,2-1.5c0,0.4-0.1,1,0.2,1.2c1-0.1,2.3,0.2,3.1-0.2c0-5.2,0-10.4,0-15.7C34.9,36.2,33.6,36.4,32.6,36.3z M26,46.6
		c0-0.1,0-0.1,0-0.2C26,46.4,26,46.5,26,46.6z M25.9,45.6c0,0,0-0.1,0-0.1C25.9,45.5,25.9,45.6,25.9,45.6z M30.6,39.2
		c0.1,0,0.1-0.1,0.2-0.1c2.5-0.2,2.3,10.4,0.2,10.4c-2.2,0.1-2.3-8.9-0.6-10.3c-0.1,0.1-0.2,0.2-0.3,0.3c0.1-0.1,0.2-0.3,0.3-0.3
		c0,0,0,0,0,0C30.4,39.2,30.5,39.2,30.6,39.2z M29.1,42.3c0-0.3,0.1-0.5,0.1-0.7C29.2,41.8,29.2,42.1,29.1,42.3z M29.3,41.5
		c0.1-0.2,0.1-0.5,0.2-0.7C29.4,41,29.3,41.2,29.3,41.5z M29.5,40.7c0.1-0.2,0.1-0.4,0.2-0.6C29.6,40.3,29.5,40.5,29.5,40.7z
		 M29.7,40.1c0.1-0.2,0.2-0.3,0.3-0.5C29.9,39.8,29.8,39.9,29.7,40.1z M29,44.2c0,0.6,0,1.2,0.1,1.7C29,45.4,29,44.8,29,44.2z
		 M29.2,46.8c0-0.3-0.1-0.5-0.1-0.8C29.1,46.2,29.1,46.5,29.2,46.8z M29,44.1c0-0.3,0-0.6,0-0.9C29,43.6,29,43.8,29,44.1z M29,43.2
		c0-0.3,0-0.5,0.1-0.8C29.1,42.7,29.1,42.9,29,43.2z M29.9,48.9c0.1,0.1,0.2,0.3,0.3,0.4C30,49.2,29.9,49.1,29.9,48.9z M30.5,49.6
		c-0.1-0.1-0.2-0.1-0.3-0.2C30.3,49.5,30.4,49.5,30.5,49.6z M29.8,48.9c-0.1-0.2-0.2-0.3-0.2-0.5C29.7,48.5,29.7,48.7,29.8,48.9z
		 M29.6,48.3c-0.1-0.2-0.1-0.4-0.2-0.6C29.4,47.9,29.5,48.1,29.6,48.3z M29.3,47.5c-0.1-0.2-0.1-0.5-0.1-0.7
		C29.2,47.1,29.3,47.3,29.3,47.5z M30.9,49.7c-0.1,0-0.3,0-0.4-0.1C30.7,49.7,30.8,49.7,30.9,49.7z M28.3,52c-0.1,0-0.2-0.1-0.3-0.2
		C28.1,51.9,28.2,52,28.3,52z M28.6,52.1c-0.1,0-0.1,0-0.2-0.1C28.5,52.1,28.6,52.1,28.6,52.1z M29.4,52.3
		C29.4,52.3,29.4,52.3,29.4,52.3C29.4,52.3,29.4,52.3,29.4,52.3z M29,52.2C29,52.2,29,52.2,29,52.2C29,52.2,29,52.2,29,52.2z
		 M31,52.2c-0.1,0-0.1,0-0.2,0.1C30.9,52.2,30.9,52.2,31,52.2C31,52.2,31,52.2,31,52.2z M32.6,50.6c-0.4,0.1-0.6,0.4-0.8,0.7
		C32,51,32.2,50.7,32.6,50.6z M32.6,37.9c-0.2-0.2-0.4-0.4-0.6-0.6C32.2,37.5,32.4,37.7,32.6,37.9z M31.9,37.2
		c-0.2-0.2-0.4-0.3-0.5-0.4C31.5,36.9,31.7,37,31.9,37.2z M31.2,36.7c-0.1-0.1-0.3-0.2-0.4-0.2C30.9,36.5,31.1,36.6,31.2,36.7z
		 M30,36.2c-0.1,0-0.2,0-0.3,0C29.8,36.1,29.9,36.2,30,36.2z M30.6,36.4c-0.2-0.1-0.3-0.1-0.4-0.2C30.3,36.3,30.5,36.3,30.6,36.4z
		 M26.2,40.8C26.2,40.8,26.2,40.8,26.2,40.8C26.2,40.8,26.2,40.8,26.2,40.8z M26.1,41.7C26.1,41.7,26.1,41.7,26.1,41.7
		C26.1,41.7,26.1,41.7,26.1,41.7z M26.4,48.9c0,0.1,0,0.1,0,0.2C26.4,49,26.4,48.9,26.4,48.9z M26.1,47.2c0,0.1,0,0.2,0,0.2
		C26.1,47.4,26.1,47.3,26.1,47.2z M26.2,48.1c0,0.1,0,0.1,0,0.2C26.2,48.2,26.2,48.1,26.2,48.1z M30.4,52.4c0.1,0,0.1,0,0.2,0
		C30.5,52.3,30.4,52.4,30.4,52.4z M31.2,52.1c0.7-0.3,1.2-0.8,1.4-1.4c0,0,0,0,0,0C32.4,51.2,31.9,51.8,31.2,52.1z"/>
	<path fill-rule="evenodd" clip-rule="evenodd" fill="#FFFFFF" d="M67.8,45.1c2-0.1,4.5,0.2,6.3-0.2c0-0.1,0-0.1,0-0.2
		c0-0.6,0-1.2,0-1.8c0-0.1,0.2-1.6-0.3-1.7c0-0.3,0-0.5,0-0.8c-0.2-1.4-0.7-2.4-1.5-3.1c-0.6-0.8-1.7-1-2.9-1.2
		c-3.3-0.3-4.8,3.2-4.8,6.3c0,1.4,0,2.8,0,4.1c0,0.6-0.1,1.3,0.3,1.5c0,0.1,0,0.1,0,0.2c-0.2,0.4,0.2,1.5,0.6,1.8c0,0.1,0,0.1,0,0.2
		c0.6,1.2,1.5,2,3.1,2.1c1.5,0.1,2.4-0.3,3.4-0.6c1-0.6,1.9-2.1,1.8-3.2c0-0.1,0-0.1,0-0.2c0.4-0.3,0.4-1.4,0.2-1.8
		c-0.9,0-1.8,0-2.8,0C71,46.9,70.8,47.9,71,48c0,0.1,0,0.1,0,0.2c-0.4,0.5-0.6,1.2-1.1,1.5c-1.8,0.5-2.3-1.5-2.3-3.4
		C67.9,46.4,67.3,45.2,67.8,45.1z M70.7,40.9c-0.1,0.1,0,1.3,0.2,1.7c-1-0.2-2.7,0.4-3.2-0.3C66.9,39.1,70.6,37.4,70.7,40.9z"/>
	<path fill-rule="evenodd" clip-rule="evenodd" fill="#FFFFFF" d="M104.3,36.3c-1.1-0.5-3.2-0.2-4.1,1.1c0-0.4,0.1-0.9-0.2-1.1
		c-1,0.1-2.3-0.2-3.1,0.2c0,13.1,0,16.5,0,29.6c0.8,0.3,2.5,0.3,3.2,0c0-8.2,0-6.7,0-14.9c0.8,0.8,1.2,1.3,2.5,1.4
		C108.7,52.9,107.6,37.8,104.3,36.3z M106.5,42c0-0.2,0-0.4-0.1-0.6C106.4,41.6,106.5,41.8,106.5,42z M106.4,41.2c0-0.1,0-0.3,0-0.4
		C106.4,41,106.4,41.1,106.4,41.2z M106.3,40.6c0-0.1,0-0.2-0.1-0.3C106.3,40.4,106.3,40.5,106.3,40.6z M106.2,40
		c0-0.1,0-0.2-0.1-0.3C106.2,39.8,106.2,39.9,106.2,40z M106.1,39.5c0-0.1,0-0.1-0.1-0.2C106,39.3,106.1,39.4,106.1,39.5z
		 M105.8,38.7c0,0,0-0.1-0.1-0.1C105.8,38.6,105.8,38.6,105.8,38.7z M105.6,38.2c0,0,0-0.1-0.1-0.1
		C105.6,38.2,105.6,38.2,105.6,38.2z M105.4,37.8C105.4,37.8,105.4,37.8,105.4,37.8C105.4,37.8,105.4,37.8,105.4,37.8z M105.2,37.4
		C105.2,37.4,105.1,37.4,105.2,37.4C105.1,37.4,105.2,37.4,105.2,37.4z M102,39c-0.1,0-0.3,0-0.4,0C101.7,38.9,101.9,38.9,102,39z
		 M103.7,44.7c0-0.1,0-0.3,0-0.4C103.7,44.5,103.7,44.6,103.7,44.7z M99.9,43.7c0,0.2,0,0.5,0,0.7C99.9,44.2,99.9,44,99.9,43.7z
		 M101,39.5C101,39.5,101,39.4,101,39.5c0.1-0.1,0.1-0.1,0.1-0.1c0.1-0.1,0.1-0.1,0.2-0.2c0,0,0,0,0,0c0.1,0,0.1-0.1,0.2-0.1
		c2.8-0.5,2.7,10.5,0.2,10.4c-0.4,0-0.7-0.3-1-0.8c0.1,0.2,0.2,0.4,0.4,0.6c-0.2-0.2-0.4-0.5-0.5-0.9c0,0.1,0.1,0.2,0.1,0.3
		C99.7,46.7,100,41.1,101,39.5z M100.6,48.4c-0.1-0.2-0.1-0.4-0.2-0.6C100.4,48,100.5,48.2,100.6,48.4z M100.3,47.7
		c-0.1-0.2-0.1-0.4-0.2-0.7C100.2,47.3,100.3,47.5,100.3,47.7z M100.2,47c0-0.2-0.1-0.5-0.1-0.7C100.1,46.5,100.1,46.8,100.2,47z
		 M100,46.2c0-0.2-0.1-0.5-0.1-0.7C100,45.7,100,45.9,100,46.2z M99.9,45.3c0-0.2,0-0.5,0-0.7C99.9,44.8,99.9,45,99.9,45.3z
		 M99.9,43.5c0-0.2,0-0.5,0-0.7C99.9,43,99.9,43.3,99.9,43.5z M99.9,42.6c0-0.2,0-0.4,0.1-0.6C100,42.2,100,42.4,99.9,42.6z
		 M100,41.8c0-0.2,0.1-0.4,0.1-0.5C100.1,41.5,100.1,41.6,100,41.8z M100.2,41.1c0-0.2,0.1-0.4,0.2-0.5
		C100.3,40.7,100.2,40.9,100.2,41.1z M100.4,40.4c0.1-0.1,0.1-0.3,0.2-0.4C100.5,40.1,100.5,40.2,100.4,40.4z M100.7,39.8
		c0.1-0.1,0.1-0.2,0.2-0.3C100.8,39.6,100.8,39.7,100.7,39.8z M101.5,39.1C101.5,39.1,101.5,39.1,101.5,39.1
		C101.5,39.1,101.5,39.1,101.5,39.1z M101.8,39C101.8,39,101.8,39,101.8,39C101.8,39,101.8,39,101.8,39z M101.9,49.7
		c0.2,0,0.3-0.1,0.4-0.1C102.2,49.6,102,49.7,101.9,49.7c-0.1,0-0.2,0-0.3-0.1C101.6,49.7,101.8,49.7,101.9,49.7z M101.5,49.6
		c-0.1-0.1-0.2-0.1-0.3-0.2C101.3,49.5,101.4,49.5,101.5,49.6z M103.5,46.8c0,0.2,0,0.3-0.1,0.5C103.5,47.1,103.5,47,103.5,46.8z
		 M103.4,47.6c0,0.1-0.1,0.3-0.1,0.4C103.3,47.9,103.4,47.7,103.4,47.6z M103.2,48.3c0,0.1-0.1,0.2-0.1,0.4
		C103.1,48.5,103.2,48.4,103.2,48.3z M103,48.8c-0.1,0.1-0.1,0.2-0.2,0.3C102.9,49,102.9,48.9,103,48.8z M102.7,49.3
		c-0.1,0.1-0.2,0.1-0.2,0.2C102.5,49.4,102.6,49.4,102.7,49.3z M103.7,45.2c0,0.2,0,0.3,0,0.5C103.6,45.5,103.7,45.3,103.7,45.2z
		 M103.6,46c0,0.2,0,0.3,0,0.5C103.6,46.3,103.6,46.2,103.6,46z M103.6,42.9C103.6,42.9,103.6,42.9,103.6,42.9
		C103.6,42.9,103.6,42.9,103.6,42.9z M103.6,43.5c0,0.1,0,0.2,0,0.3C103.6,43.7,103.6,43.6,103.6,43.5z M103.6,41.5
		c0.1,0.2,0.1,0.5,0.1,0.8C103.7,42,103.6,41.8,103.6,41.5z M102.9,39.7C102.9,39.7,102.9,39.7,102.9,39.7c0.1,0.2,0.2,0.3,0.3,0.5
		C103.1,40,103,39.8,102.9,39.7z M103.2,40.2c0.2,0.4,0.3,0.8,0.4,1.3C103.5,41,103.3,40.6,103.2,40.2z M102.4,39.2
		c-0.1-0.1-0.3-0.2-0.4-0.2C102.2,39,102.3,39.1,102.4,39.2C102.4,39.2,102.4,39.2,102.4,39.2z M102.2,49.8
		c-0.1,0.1-0.2,0.1-0.4,0.1C102,49.8,102.1,49.8,102.2,49.8z M102.9,49.1c-0.1,0.1-0.2,0.2-0.3,0.3
		C102.7,49.3,102.8,49.2,102.9,49.1z M102.6,49.5c-0.1,0.1-0.2,0.2-0.3,0.2C102.4,49.7,102.5,49.6,102.6,49.5z M103.7,46.5
		c0,0.2-0.1,0.5-0.1,0.7C103.6,47,103.7,46.8,103.7,46.5z M103.6,47.3c0,0.2-0.1,0.4-0.1,0.6C103.5,47.7,103.5,47.5,103.6,47.3z
		 M103.4,48c-0.1,0.2-0.1,0.4-0.2,0.5C103.3,48.3,103.3,48.2,103.4,48z M103.2,48.6c-0.1,0.2-0.1,0.3-0.2,0.5
		C103,48.9,103.1,48.8,103.2,48.6z M103.8,44.8c0-0.3,0-0.5,0-0.8C103.8,44.2,103.8,44.5,103.8,44.8z M103.8,44.9c0,0.3,0,0.5,0,0.8
		C103.8,45.4,103.8,45.1,103.8,44.9z M103.8,45.7c0,0.3,0,0.5-0.1,0.7C103.8,46.2,103.8,45.9,103.8,45.7z M103.7,42.3
		c0.1,0.5,0.1,1.1,0.1,1.6C103.8,43.4,103.8,42.8,103.7,42.3z M103.2,36.3L103.2,36.3C103.2,36.3,103.2,36.3,103.2,36.3
		C103.2,36.3,103.2,36.3,103.2,36.3z M103.6,36.3C103.6,36.3,103.6,36.3,103.6,36.3C103.6,36.3,103.6,36.3,103.6,36.3z M101.3,36.7
		C101.3,36.7,101.3,36.7,101.3,36.7C101.3,36.7,101.3,36.7,101.3,36.7C101.3,36.7,101.3,36.7,101.3,36.7z M100.4,37.9
		C100.4,37.9,100.4,37.9,100.4,37.9C100.4,37.9,100.4,37.9,100.4,37.9z M100.6,37.7C100.6,37.7,100.6,37.7,100.6,37.7
		C100.6,37.7,100.6,37.7,100.6,37.7z M100.1,38.1C100.2,38.1,100.2,38.1,100.1,38.1C100.2,38.1,100.2,38.1,100.1,38.1z M104,36.4
		C104,36.4,104,36.5,104,36.4C104,36.5,104,36.4,104,36.4z M104.6,36.6c-0.2-0.1-0.4-0.2-0.7-0.3C104.2,36.4,104.4,36.5,104.6,36.6z
		 M103.9,36.4c-0.2,0-0.3-0.1-0.5-0.1c-0.1,0-0.1,0-0.2,0c0,0,0,0,0,0C103.5,36.3,103.7,36.3,103.9,36.4z M100.8,37
		c-0.1,0-0.1,0.1-0.1,0.1C100.7,37.1,100.8,37.1,100.8,37z M100.4,37.4c0,0-0.1,0.1-0.1,0.1C100.3,37.5,100.4,37.5,100.4,37.4z"/>
	<path fill-rule="evenodd" clip-rule="evenodd" fill="#FFFFFF" d="M94.2,36.5c-0.8-0.3-2.6-0.3-3.4,0c-0.4,1.4,0,4.8,0.2,7.8
		c0,0.4,0,0.8,0,1.2c0-0.1,0-0.2,0-0.3c0,2-0.1,3.7-1,4c-2.9,1.4-2.3-3.6-2.3-5.8c0-2.7,0-4.7,0-6.9c-0.8-0.1-3.1-0.6-3.4,0.3
		c0.7,4.8-1.3,11.5,1.1,14.4c1.8,2.2,6.9,1.7,8.1-0.6C95.3,47.4,93.5,40.3,94.2,36.5z M91,46.5C91,46.4,91,46.4,91,46.5
		C91,46.4,91,46.4,91,46.5z M90.5,49.1C90.5,49,90.5,49,90.5,49.1C90.5,49,90.5,49,90.5,49.1z M90.7,48.7
		C90.7,48.7,90.7,48.7,90.7,48.7C90.7,48.7,90.7,48.7,90.7,48.7z M90.8,48.4c0,0,0-0.1,0-0.1C90.9,48.3,90.9,48.3,90.8,48.4z
		 M90.9,48c0,0,0-0.1,0-0.1C90.9,47.9,90.9,47.9,90.9,48z M91,47.5c0-0.1,0-0.1,0-0.2C91,47.4,91,47.5,91,47.5z M91,47.1
		c0,0,0-0.1,0-0.1C91,47,91,47,91,47.1z M89.3,49.6c0,0,0.1,0,0.1,0C89.4,49.6,89.3,49.6,89.3,49.6z M84.8,40.6c0-0.4,0-0.9,0-1.3
		C84.8,39.8,84.8,40.2,84.8,40.6z M84.8,37.8c0-0.4-0.1-0.8-0.1-1.1C84.7,37,84.8,37.4,84.8,37.8z M84.8,39.2c0-0.4,0-0.7,0-1.1
		C84.8,38.4,84.8,38.8,84.8,39.2z M84.8,41.3c0,0.1,0,0.2,0,0.3C84.7,41.5,84.8,41.4,84.8,41.3z M84.7,48.7
		C84.7,48.7,84.7,48.7,84.7,48.7C84.7,48.7,84.7,48.7,84.7,48.7C84.7,48.7,84.7,48.7,84.7,48.7z M84.7,48.4
		C84.7,48.4,84.7,48.4,84.7,48.4C84.7,48.4,84.7,48.4,84.7,48.4C84.7,48.4,84.7,48.4,84.7,48.4z M84.6,47.1
		C84.6,47.1,84.6,47,84.6,47.1C84.6,47,84.6,47.1,84.6,47.1z M85.9,51.4c-0.2-0.2-0.3-0.3-0.4-0.5C85.6,51,85.7,51.2,85.9,51.4z
		 M85.2,50.4c0-0.1-0.1-0.1-0.1-0.2C85.1,50.3,85.2,50.3,85.2,50.4z M84.9,49.5C84.9,49.5,84.9,49.5,84.9,49.5
		C84.9,49.5,84.9,49.5,84.9,49.5z M91,46c0-0.1,0-0.1,0-0.2C91,45.9,91,45.9,91,46z M90.4,49.3C90.3,49.3,90.3,49.3,90.4,49.3
		C90.3,49.3,90.3,49.3,90.4,49.3z M90.1,49.4c0,0-0.1,0-0.1,0.1C90,49.5,90.1,49.5,90.1,49.4z M89.7,49.6c0,0,0.1,0,0.1,0
		C89.7,49.6,89.7,49.6,89.7,49.6z M84.7,37.2c0-0.3,0-0.5,0-0.7C84.7,36.7,84.7,37,84.7,37.2z M84.6,38.2c-0.1,3-0.4,7.3,0,10.2
		C84.2,45.5,84.5,41.2,84.6,38.2z M84.7,37.4c0,0.2,0,0.5,0,0.7C84.7,37.9,84.7,37.6,84.7,37.4z M85.4,50.9c0.1,0.2,0.2,0.3,0.4,0.5
		C85.6,51.2,85.5,51.1,85.4,50.9z M84.7,48.7c0,0.3,0.1,0.6,0.2,0.8C84.8,49.2,84.7,49,84.7,48.7z M84.9,49.5
		c0.1,0.2,0.1,0.5,0.2,0.7C85,50,84.9,49.8,84.9,49.5z M85.1,50.3c0.1,0.2,0.2,0.4,0.2,0.5C85.3,50.6,85.2,50.5,85.1,50.3z"/>
	<path fill-rule="evenodd" clip-rule="evenodd" fill="#FFFFFF" d="M54.7,38.2c-0.3-0.7-0.7-1.1-1.4-1.4c-2.2-0.7-4.2,0.2-5.1,1.7
		c-0.1-0.3-0.3-0.4-0.3-0.8c-0.5-0.7-1-1.3-2.3-1.2c-0.2,0-0.3,0-0.5,0c-1.5-0.1-2.1,0.8-2.8,1.5c-0.1-0.4,0.2-1.1-0.2-1.2
		c-0.1,0-0.1,0-0.2,0c-0.9,0-1.8,0-2.8,0c0,5.2,0,10.4,0,15.7c0.9,0,1.8,0,2.8,0c0.1,0,0.1,0,0.2,0c0.7-3.9-0.7-9.9,0.9-12.9
		c0.1,0,0.1,0,0.2,0c0.7-0.2,1.1,0,1.7,0.2c1.1,3.4,0,8.9,0.6,12.7c0.1,0,0.1,0,0.2,0c0.9,0,1.8,0,2.8,0c0.1,0,0.1,0,0.2,0
		c0.4-3.4,0.1-8.2,0.2-11.4c0-0.8,0.1-1.4,0.8-1.5c1.5-0.6,1.9,0.7,2.3,1.7c0,3.7,0,7.5,0,11.2c1,0,2,0,3.1,0c0-4.2,0-8.4,0-12.6
		c0.3-0.3,0-1.3-0.3-1.5C54.7,38.3,54.7,38.2,54.7,38.2z"/>
	<path fill-rule="evenodd" clip-rule="evenodd" fill="#FFFFFF" d="M100.7,48.7C100.7,48.7,100.7,48.7,100.7,48.7
		C100.7,48.7,100.7,48.7,100.7,48.7z"/>
	<path fill-rule="evenodd" clip-rule="evenodd" fill="#FFFFFF" d="M79.9,42.6c-0.1,0-0.1,0-0.2,0c0-0.1,0-0.1,0-0.2
		c-0.3-0.2-1.6-0.4-1.7,0.2c-0.1,0-0.1,0-0.2,0c-3.4,1.9,2.4,6,2.9,1.8c0-0.1,0-0.2,0-0.3C80.9,43.3,80.4,43,79.9,42.6z"/>
	<path fill-rule="evenodd" clip-rule="evenodd" fill="#FFFFFF" d="M60.7,42.6c-0.4,0-0.8,0-1.2,0c-0.1,0-0.1,0-0.2,0
		c-0.6,0.3-1.2,0.6-1.2,1.5c0,0.2,0,0.4,0,0.6c0.1,0.9,0.6,1.3,1.4,1.5c0.4,0,0.7,0,1.1,0C62.5,46.1,62.5,43,60.7,42.6z"/>
</g>
</svg>
