<?xml version="1.0" encoding="utf-8"?>
<!-- Generator: Adobe Illustrator 17.1.0, SVG Export Plug-In . SVG Version: 6.00 Build 0)  -->
<!DOCTYPE svg PUBLIC "-//W3C//DTD SVG 1.1//EN" "http://www.w3.org/Graphics/SVG/1.1/DTD/svg11.dtd">
<svg version="1.1" id="Layer_1" xmlns="http://www.w3.org/2000/svg" xmlns:xlink="http://www.w3.org/1999/xlink" x="0px" y="0px"
	 viewBox="0 0 400 400" enable-background="new 0 0 400 400" xml:space="preserve">
<g>
	<path fill="#FFFFFF" d="M9.6,34.3H46V45H33.6v64.2H21.9V45H9.6V34.3z"/>
	<path fill="#FFFFFF" d="M62.9,109.3H51.1V34.3h11.8v32.1h13.4V34.3h12v74.9h-12V77.2H62.9V109.3z"/>
	<path fill="#FFFFFF" d="M108.6,65.9h16.2v10.7h-16.2v21.9h20.3v10.7H96.8V34.3h32.1V45h-20.3V65.9z"/>
	<path fill="#FFFFFF" d="M164.6,67.6h15.2v10.7h-15.2v30.9h-11.8V34.3H184V45h-19.4V67.6z"/>
	<path fill="#FFFFFF" d="M200.9,34.3v57.8c0,5.4,2.4,7.3,6.1,7.3c3.7,0,6.1-1.9,6.1-7.3V34.3h11.1v57.1c0,12-6,18.8-17.6,18.8
		c-11.6,0-17.6-6.9-17.6-18.8V34.3H200.9z"/>
	<path fill="#FFFFFF" d="M228.8,34.3h36.4V45h-12.3v64.2h-11.8V45h-12.3V34.3z"/>
	<path fill="#FFFFFF" d="M281.6,34.3v57.8c0,5.4,2.4,7.3,6.1,7.3c3.7,0,6.1-1.9,6.1-7.3V34.3H305v57.1c0,12-6,18.8-17.6,18.8
		c-11.6,0-17.6-6.9-17.6-18.8V34.3H281.6z"/>
	<path fill="#FFFFFF" d="M337.6,109.3c-0.6-1.9-1.1-3.1-1.1-9.2V88.3c0-7-2.4-9.5-7.7-9.5h-4.1v30.5H313V34.3h17.8
		c12.2,0,17.5,5.7,17.5,17.2v5.9c0,7.7-2.5,12.7-7.7,15.2c5.9,2.5,7.8,8.1,7.8,16v11.6c0,3.6,0.1,6.3,1.3,9.1H337.6z M324.8,45v23
		h4.6c4.4,0,7.1-1.9,7.1-7.9v-7.4c0-5.4-1.8-7.7-6-7.7H324.8z"/>
	<path fill="#FFFFFF" d="M367.8,65.9H384v10.7h-16.2v21.9h20.3v10.7h-32.1V34.3h32.1V45h-20.3V65.9z"/>
</g>
<g>
	<path fill="#FFFFFF" d="M17.9,239.8h19.8v125.9H17.9V239.8z"/>
	<path fill="#FFFFFF" d="M78.7,238.4c19.2,0,29.1,11.5,29.1,31.6v4H89.1v-5.2c0-9-3.6-12.4-9.9-12.4s-9.9,3.4-9.9,12.4
		c0,25.9,38.7,30.7,38.7,66.7c0,20.1-10.1,31.6-29.5,31.6S49,355.6,49,335.5v-7.7h18.7v9c0,9,4,12.2,10.2,12.2s10.2-3.2,10.2-12.2
		c0-25.9-38.7-30.7-38.7-66.7C49.5,249.9,59.4,238.4,78.7,238.4z"/>
	<path fill="#FFFFFF" d="M164.8,274.6v91.2H147V239.8h24.8l20.3,75.3v-75.3h17.6v125.9h-20.3L164.8,274.6z"/>
	<path fill="#FFFFFF" d="M222.3,270.1c0-20.1,10.6-31.6,30-31.6c19.4,0,30,11.5,30,31.6v65.5c0,20.1-10.6,31.6-30,31.6
		c-19.4,0-30-11.5-30-31.6V270.1z M242.1,336.8c0,9,4,12.4,10.2,12.4c6.3,0,10.2-3.4,10.2-12.4v-68c0-9-4-12.4-10.2-12.4
		c-6.3,0-10.2,3.4-10.2,12.4V336.8z"/>
	<path fill="#FFFFFF" d="M339,298.6l-7.2,67.1h-27.2l-14-125.9h19.2l10.6,99.3l9.5-99.3h19.1l9.9,100l10.3-100h17.3l-14,125.9h-26.3
		L339,298.6z"/>
</g>
<g>
	<path fill="#FFFFFF" d="M12,156.3c0-11.1,5.8-17.4,16.6-17.4c10.7,0,16.6,6.3,16.6,17.4v36.1c0,11.1-5.8,17.4-16.6,17.4
		c-10.7,0-16.6-6.3-16.6-17.4V156.3z M22.9,193.1c0,5,2.2,6.8,5.7,6.8s5.7-1.9,5.7-6.8v-37.5c0-5-2.2-6.8-5.7-6.8s-5.7,1.9-5.7,6.8
		V193.1z"/>
	<path fill="#FFFFFF" d="M63.1,170.5h14.1v9.9H63.1v28.7H52.2v-69.4H81v9.9H63.1V170.5z"/>
	<path fill="#FFFFFF" d="M116.3,138.9c10.6,0,16.1,6.3,16.1,17.4v2.2h-10.3v-2.9c0-5-2-6.8-5.5-6.8s-5.5,1.9-5.5,6.8
		c0,14.3,21.3,17,21.3,36.8c0,11.1-5.6,17.4-16.3,17.4c-10.7,0-16.3-6.3-16.3-17.4v-4.3h10.3v5c0,5,2.2,6.7,5.7,6.7s5.7-1.8,5.7-6.7
		c0-14.3-21.3-17-21.3-36.8C100.3,145.2,105.7,138.9,116.3,138.9z"/>
	<path fill="#FFFFFF" d="M149.6,209.1h-10.9v-69.4h10.9v29.7H162v-29.7h11.1v69.4H162v-29.7h-12.4V209.1z"/>
	<path fill="#FFFFFF" d="M180.2,156.3c0-11.1,5.8-17.4,16.6-17.4s16.6,6.3,16.6,17.4v36.1c0,11.1-5.8,17.4-16.6,17.4
		s-16.6-6.3-16.6-17.4V156.3z M191.1,193.1c0,5,2.2,6.8,5.7,6.8s5.7-1.9,5.7-6.8v-37.5c0-5-2.2-6.8-5.7-6.8s-5.7,1.9-5.7,6.8V193.1z
		"/>
	<path fill="#FFFFFF" d="M252.6,156.8v9c0,11.1-5.4,17.2-16.3,17.2h-5.2v26.1h-10.9v-69.4h16.1C247.3,139.7,252.6,145.7,252.6,156.8
		z M231.2,149.6v23.5h5.2c3.5,0,5.4-1.6,5.4-6.5v-10.4c0-5-1.9-6.5-5.4-6.5H231.2z"/>
	<path fill="#FFFFFF" d="M290,156.8v9c0,11.1-5.4,17.2-16.3,17.2h-5.2v26.1h-10.9v-69.4h16.1C284.7,139.7,290,145.7,290,156.8z
		 M268.6,149.6v23.5h5.2c3.5,0,5.4-1.6,5.4-6.5v-10.4c0-5-1.9-6.5-5.4-6.5H268.6z"/>
	<path fill="#FFFFFF" d="M295.1,139.7H306v69.4h-10.9V139.7z"/>
	<path fill="#FFFFFF" d="M323.6,158.8v50.3h-9.8v-69.4h13.7l11.2,41.5v-41.5h9.7v69.4h-11.2L323.6,158.8z"/>
	<path fill="#FFFFFF" d="M372.6,170.4h15.3v22c0,11.1-5.6,17.4-16.3,17.4c-10.7,0-16.3-6.3-16.3-17.4v-36.1
		c0-11.1,5.6-17.4,16.3-17.4c10.7,0,16.3,6.3,16.3,17.4v6.7h-10.3v-7.4c0-5-2.2-6.8-5.7-6.8s-5.7,1.9-5.7,6.8v37.5
		c0,5,2.2,6.7,5.7,6.7s5.7-1.8,5.7-6.7v-12.8h-5V170.4z"/>
</g>
</svg>
